<svg version="1.1" xmlns="http://www.w3.org/2000/svg" xmlns:xlink="http://www.w3.org/1999/xlink" width="50.07241" height="58.5" viewBox="0,0,50.07241,58.5"><g transform="translate(-214.9638,-150.75)"><g data-paper-data="{&quot;isPaintingLayer&quot;:true}" fill-rule="nonzero" stroke="none" stroke-linecap="butt" stroke-linejoin="miter" stroke-miterlimit="10" stroke-dasharray="" stroke-dashoffset="0" style="mix-blend-mode: normal"><path d="M237.22602,150.75l2.77789,0.01056l2.7818,0.01585l0.56732,1.32054c0.58688,1.37336 10.15299,23.73278 17.46157,40.8153l4.22161,9.86181l-1.38894,3.23797l-1.38503,3.23797h-22.26614h-22.26614l-1.31461,-3.06366c-0.7199,-1.68501 -1.34199,-3.14817 -1.38112,-3.24853l-0.07043,-0.18488l0.41864,-0.9772c0.23475,-0.53878 1.34591,-3.14289 2.47662,-5.78397c1.13072,-2.64637 3.88513,-9.08533 6.12309,-14.31467c2.23796,-5.22935 6.07223,-14.19318 8.52147,-19.91377c2.44532,-5.72587 4.51113,-10.54321 4.58547,-10.71223zM239.99609,170.29402c-0.01174,0 -1.04856,2.40867 -2.30447,5.35084c-1.25983,2.93688 -3.75602,8.77368 -5.54795,12.96244c-1.79193,4.18876 -3.25913,7.63273 -3.25913,7.64858c0,0.01585 5.0002,0.02641 11.11155,0.02641c6.11135,0 11.11155,-0.01056 11.11155,-0.02641c0,-0.01585 -1.31069,-3.09007 -2.91091,-6.82984c-1.60022,-3.73977 -4.02989,-9.42339 -5.40319,-12.63494c-1.37329,-3.21156 -2.55879,-5.9847 -2.63704,-6.16429c-0.07825,-0.18488 -0.14868,-0.33278 -0.16041,-0.33278z" fill="#000000" stroke-width="1"/><path d="M239.99609,170.24403c0.01173,0 0.08279,0.1479 0.16104,0.33278c0.07825,0.17959 1.28289,2.9568 2.65618,6.16836c1.3733,3.21155 3.82323,8.97105 5.42345,12.71082c1.60022,3.73977 2.90341,6.822 2.90341,6.83785c0,0.01585 -5.03273,0.03844 -11.14408,0.03844c-6.11135,0 -11.14408,-0.02259 -11.14408,-0.03844c0,-0.01585 1.45834,-3.46975 3.25027,-7.65851c1.79193,-4.18876 4.31508,-10.10147 5.57491,-13.03835c1.25591,-2.94217 2.30716,-5.35297 2.3189,-5.35297z" data-paper-data="{&quot;noHover&quot;:false,&quot;origItem&quot;:[&quot;Path&quot;,{&quot;applyMatrix&quot;:true,&quot;segments&quot;:[[[239.99609,170.29402],[0,0],[-0.01174,0]],[[237.69162,175.64486],[1.25591,-2.94217],[-1.25983,2.93688]],[[232.14367,188.6073],[1.79193,-4.18876],[-1.79193,4.18876]],[[228.88454,196.25588],[0,-0.01585],[0,0.01585]],[[239.99609,196.28229],[-6.11135,0],[6.11135,0]],[[251.10764,196.25588],[0,0.01585],[0,-0.01585]],[[248.19673,189.42604],[1.60022,3.73977],[-1.60022,-3.73977]],[[242.79354,176.7911],[1.3733,3.21155],[-1.37329,-3.21156]],[[240.1565,170.62681],[0.07825,0.17959],[-0.07825,-0.18488]],[[239.99609,170.29403],[0.01173,0],[0,0]]],&quot;closed&quot;:true,&quot;fillColor&quot;:[0,0,0]}]}" fill="#ffffff" stroke-width="0.5"/></g></g></svg>