<svg version="1.1" xmlns="http://www.w3.org/2000/svg" xmlns:xlink="http://www.w3.org/1999/xlink" width="36.64463" height="40.84072" viewBox="0,0,36.64463,40.84072"><defs><linearGradient x1="240.01069" y1="163.39248" x2="240.01069" y2="197.10168" gradientUnits="userSpaceOnUse" id="color-1"><stop offset="0" stop-color="#c4ff0f"/><stop offset="1" stop-color="#fbfc05"/></linearGradient></defs><g transform="translate(-221.67768,-159.57964)"><g data-paper-data="{&quot;isPaintingLayer&quot;:true}" fill-rule="nonzero" stroke="none" stroke-linecap="butt" stroke-linejoin="miter" stroke-miterlimit="10" stroke-dasharray="" stroke-dashoffset="0" style="mix-blend-mode: normal"><path d="M258.00128,176.23373l-8.24316,9.43761l1.97806,13.21266c0.02256,0.08779 0.03008,0.17558 0.03008,0.27215c0,0.64966 -0.45879,1.18519 -1.01535,1.18519c-0.15794,0 -0.31589,-0.0439 -0.46631,-0.13169l-10.23626,-6.24199l-10.20618,6.31223c-0.15042,0.09657 -0.30837,0.14047 -0.47383,0.14047c-0.21059,0 -0.42118,-0.07901 -0.59417,-0.22826c-0.31589,-0.26338 -0.47383,-0.71111 -0.40614,-1.15885l1.91789,-13.29167l-8.29581,-9.38494c-0.27828,-0.30727 -0.38358,-0.78135 -0.26324,-1.21153c0.12034,-0.43018 0.43623,-0.73745 0.8198,-0.80768l11.43212,-1.98409l5.07676,-12.10648c0.17299,-0.41262 0.52648,-0.66722 0.91006,-0.66722c0.38358,0 0.73707,0.2546 0.91006,0.65844l5.14445,12.07136l11.43212,1.8963c0.38358,0.07023 0.69947,0.3775 0.8198,0.80768c0.12034,0.43018 0.02256,0.90425 -0.27076,1.22031zM255.13573,176.22496l-9.92789,-1.65048c-0.33093,-0.06145 -0.61673,-0.29849 -0.76716,-0.64966l-4.46755,-10.48233l-4.40738,10.50867c-0.1429,0.35117 -0.4287,0.5882 -0.75963,0.64966l-9.92037,1.72072l7.1902,8.14707c0.24068,0.27215 0.34597,0.65844 0.29332,1.04472l-1.66217,11.54461l8.85989,-5.4782c0.30085,-0.17558 0.65434,-0.18436 0.94766,0l8.88998,5.41675l-1.72234,-11.52705c-0.06017,-0.38628 0.04513,-0.78135 0.2858,-1.0535z" fill="#000000" stroke-width="1"/><path d="M248.01239,184.43911c-0.24068,0.27215 -0.34893,0.67215 -0.28876,1.05844l1.70546,11.54254l-8.91222,-5.41041c-0.29332,-0.18436 -0.651,-0.17557 -0.95184,0.00001l-8.88215,5.47199l1.64521,-11.56c0.05265,-0.38628 -0.05562,-0.77746 -0.2963,-1.04961l-7.19445,-8.18311l9.93489,-1.74492c0.33093,-0.06145 0.62178,-0.30257 0.76468,-0.65374l4.4361,-10.51782l4.49635,10.49138c0.15042,0.35117 0.44131,0.59228 0.77224,0.65374l9.94245,1.6745z" data-paper-data="{&quot;noHover&quot;:false,&quot;origItem&quot;:[&quot;Path&quot;,{&quot;applyMatrix&quot;:true,&quot;segments&quot;:[[255.13573,176.22496],[[245.20784,174.57447],[0,0],[-0.33093,-0.06145]],[[244.44068,173.92481],[0.15042,0.35117],[0,0]],[239.97313,163.44248],[[235.56574,173.95115],[0,0],[-0.1429,0.35117]],[[234.80611,174.60081],[0.33093,-0.06145],[0,0]],[224.88574,176.32153],[[232.07594,184.4686],[0,0],[0.24068,0.27215]],[[232.36926,185.51332],[0.05265,-0.38628],[0,0]],[230.70709,197.05793],[[239.56699,191.57973],[0,0],[0.30085,-0.17558]],[[240.51465,191.57973],[-0.29332,-0.18436],[0,0]],[249.40463,196.99648],[[247.68229,185.46942],[0,0],[-0.06017,-0.38628]],[[247.96809,184.41592],[-0.24068,0.27215],[0,0]]],&quot;closed&quot;:true,&quot;fillColor&quot;:[0,0,0,1]}]}" fill="url(#color-1)" stroke-width="0.5"/></g></g></svg>