<svg version="1.1" xmlns="http://www.w3.org/2000/svg" xmlns:xlink="http://www.w3.org/1999/xlink" width="242" height="196" viewBox="0,0,242,196"><g transform="translate(-132.5,-149.5)"><g data-paper-data="{&quot;isPaintingLayer&quot;:true}" fill-rule="nonzero" stroke="none" stroke-width="0" stroke-linecap="butt" stroke-linejoin="miter" stroke-miterlimit="10" stroke-dasharray="" stroke-dashoffset="0" style="mix-blend-mode: normal"><path d="M167.5,229.5v-78h163v78z" fill="#ff3333"/><path d="M132.5,288.5v-75h242v75z" fill="#ff3333"/><path d="M208.5,308c0,20.71068 -13.43146,37.5 -30,37.5c-16.56854,0 -30,-16.78932 -30,-37.5c0,-20.71068 13.43146,-37.5 30,-37.5c16.56854,0 30,16.78932 30,37.5z" fill="#000000"/><path d="M361.5,308c0,20.71068 -13.43146,37.5 -30,37.5c-16.56854,0 -30,-16.78932 -30,-37.5c0,-20.71068 13.43146,-37.5 30,-37.5c16.56854,0 30,16.78932 30,37.5z" fill="#000000"/><path d="M295.5,213.5v-64h36v64z" fill="#33edff"/></g></g></svg>